<?xml version="1.0" standalone="no"?><!DOCTYPE svg PUBLIC "-//W3C//DTD SVG 1.1//EN" "http://www.w3.org/Graphics/SVG/1.1/DTD/svg11.dtd"><svg height="1024" node-id="1" sillyvg="true" template-height="1024" template-width="1440" version="1.1" viewBox="0 0 1440 1024" width="1440" xmlns="http://www.w3.org/2000/svg" xmlns:xlink="http://www.w3.org/1999/xlink"><defs node-id="39"></defs><path d="M 0.00 0.00 L 1440.00 0.00 L 1440.00 1024.00 L 0.00 1024.00 Z" fill="#fafeff" fill-rule="evenodd" node-id="42" stroke="none" target-height="1024" target-width="1440" target-x="0" target-y="0"></path><g node-id="44"><path d="M 1249.00 728.00 L 1248.70 735.10 L 1247.90 742.00 L 1246.50 748.70 L 1244.60 755.20 L 1242.20 761.50 L 1239.40 767.60 L 1236.10 773.30 L 1232.40 778.80 L 1228.30 784.00 L 1223.80 788.80 L 1219.00 793.30 L 1213.80 797.40 L 1208.30 801.10 L 1202.60 804.40 L 1196.50 807.20 L 1190.20 809.60 L 1183.70 811.50 L 1177.00 812.90 L 1170.10 813.70 L 1163.00 814.00 L 1155.90 813.70 L 1149.00 812.90 L 1142.30 811.50 L 1135.80 809.60 L 1129.50 807.20 L 1123.40 804.40 L 1117.70 801.10 L 1112.20 797.40 L 1107.00 793.30 L 1102.20 788.80 L 1097.70 784.00 L 1093.60 778.80 L 1089.90 773.30 L 1086.60 767.60 L 1083.80 761.50 L 1081.40 755.20 L 1079.50 748.70 L 1078.10 742.00 L 1077.30 735.10 L 1077.00 728.00 L 1077.30 720.90 L 1078.10 714.00 L 1079.50 707.30 L 1081.40 700.80 L 1083.80 694.50 L 1086.60 688.40 L 1089.90 682.70 L 1093.60 677.20 L 1097.70 672.00 L 1102.20 667.20 L 1107.00 662.70 L 1112.20 658.60 L 1117.70 654.90 L 1123.40 651.60 L 1129.50 648.80 L 1135.80 646.40 L 1142.30 644.50 L 1149.00 643.10 L 1155.90 642.30 L 1163.00 642.00 L 1170.10 642.30 L 1177.00 643.10 L 1183.70 644.50 L 1190.20 646.40 L 1196.50 648.80 L 1202.60 651.60 L 1208.30 654.90 L 1213.80 658.60 L 1219.00 662.70 L 1223.80 667.20 L 1228.30 672.00 L 1232.40 677.20 L 1236.10 682.70 L 1239.40 688.40 L 1242.20 694.50 L 1244.60 700.80 L 1246.50 707.30 L 1247.90 714.00 L 1248.70 720.90 L 1249.00 728.00 Z" fill="#cde2ff" fill-rule="nonzero" group-id="1" id="Shape" node-id="7" stroke="none" target-height="172" target-width="172" target-x="1077" target-y="642"></path><path d="M 1196.90 753.40 L 1184.10 740.60 L 1183.20 739.90 L 1182.10 739.60 L 1179.70 739.90 L 1174.40 734.60 L 1177.70 729.80 L 1179.50 724.50 L 1179.90 720.80 L 1179.80 717.20 L 1179.00 713.60 L 1176.70 708.50 L 1173.10 704.00 L 1170.70 702.10 L 1165.80 699.40 L 1163.10 698.60 L 1159.50 698.10 L 1155.80 698.10 L 1152.20 698.80 L 1147.10 700.90 L 1142.40 704.40 L 1138.90 709.10 L 1136.80 714.20 L 1136.10 717.90 L 1136.10 721.50 L 1136.60 725.20 L 1137.40 727.80 L 1140.10 732.80 L 1142.00 735.10 L 1146.50 738.70 L 1151.60 741.00 L 1155.20 741.80 L 1158.80 741.90 L 1162.50 741.50 L 1167.80 739.70 L 1172.60 736.40 L 1177.90 741.70 L 1177.60 744.00 L 1178.70 746.10 L 1191.40 758.90 L 1192.70 759.70 L 1194.20 760.00 L 1195.60 759.70 L 1196.90 758.90 L 1197.70 757.60 L 1198.00 756.20 L 1197.70 754.70 L 1196.90 753.40 Z M 1158.00 736.80 L 1155.40 736.60 L 1152.90 736.00 L 1150.60 735.00 L 1146.50 732.20 L 1143.40 728.20 L 1142.30 725.90 L 1141.60 723.30 L 1141.30 720.70 L 1141.90 715.60 L 1142.70 713.20 L 1145.40 709.00 L 1149.30 705.70 L 1151.60 704.50 L 1156.70 703.30 L 1159.20 703.30 L 1164.10 704.40 L 1168.50 706.90 L 1170.30 708.60 L 1172.00 710.70 L 1173.30 713.00 L 1174.20 715.40 L 1174.80 720.40 L 1173.90 725.40 L 1173.00 727.70 L 1169.90 731.90 L 1168.20 733.40 L 1164.50 735.50 L 1160.30 736.70 L 1158.00 736.80 Z" fill="#ffffff" fill-rule="nonzero" group-id="1" id="Shape" node-id="8" stroke="none" target-height="61.900024" target-width="61.900024" target-x="1136.1" target-y="698.1"></path></g><g node-id="45"><path d="M 799.00 180.00 L 1310.00 180.00 L 1315.20 180.30 L 1320.10 181.00 L 1324.90 182.20 L 1329.50 183.90 L 1333.90 186.10 L 1338.00 188.50 L 1341.80 191.40 L 1345.40 194.60 L 1348.60 198.20 L 1351.50 202.00 L 1353.90 206.10 L 1356.10 210.50 L 1357.80 215.10 L 1359.00 219.90 L 1359.70 224.80 L 1360.00 230.00 L 1360.00 566.00 L 1359.70 571.20 L 1359.00 576.10 L 1357.80 580.90 L 1356.10 585.50 L 1353.90 589.90 L 1351.50 594.00 L 1348.60 597.80 L 1345.40 601.40 L 1341.80 604.60 L 1338.00 607.50 L 1333.90 609.90 L 1329.50 612.10 L 1324.90 613.80 L 1320.10 615.00 L 1315.20 615.70 L 1310.00 616.00 L 799.00 616.00 L 793.80 615.70 L 788.90 615.00 L 784.10 613.80 L 779.50 612.10 L 775.10 609.90 L 771.00 607.50 L 767.20 604.60 L 763.60 601.40 L 760.40 597.80 L 757.50 594.00 L 755.10 589.90 L 752.90 585.50 L 751.20 580.90 L 750.00 576.10 L 749.30 571.20 L 749.00 566.00 L 749.00 230.00 L 749.30 224.80 L 750.00 219.90 L 751.20 215.10 L 752.90 210.50 L 755.10 206.10 L 757.50 202.00 L 760.40 198.20 L 763.60 194.60 L 767.20 191.40 L 771.00 188.50 L 775.10 186.10 L 779.50 183.90 L 784.10 182.20 L 788.90 181.00 L 793.80 180.30 L 799.00 180.00 Z" fill="#e3eeff" fill-rule="nonzero" group-id="2" id="Shape" node-id="10" stroke="none" target-height="436" target-width="611" target-x="749" target-y="180"></path><path d="M 817.00 268.00 L 958.00 268.00 L 962.10 268.30 L 966.00 269.10 L 969.70 270.40 L 973.20 272.10 L 976.30 274.20 L 979.20 276.80 L 981.80 279.70 L 983.90 282.80 L 985.60 286.30 L 986.90 290.00 L 987.70 293.90 L 988.00 298.00 L 988.00 549.00 L 987.70 553.10 L 986.90 557.00 L 985.60 560.70 L 983.90 564.20 L 981.80 567.30 L 979.20 570.20 L 976.30 572.80 L 973.20 574.90 L 969.70 576.60 L 966.00 577.90 L 962.10 578.70 L 958.00 579.00 L 817.00 579.00 L 812.90 578.70 L 809.00 577.90 L 805.30 576.60 L 801.80 574.90 L 798.70 572.80 L 795.80 570.20 L 793.20 567.30 L 791.10 564.20 L 789.40 560.70 L 788.10 557.00 L 787.30 553.10 L 787.00 549.00 L 787.00 298.00 L 787.30 293.90 L 788.10 290.00 L 789.40 286.30 L 791.10 282.80 L 793.20 279.70 L 795.80 276.80 L 798.70 274.20 L 801.80 272.10 L 805.30 270.40 L 809.00 269.10 L 812.90 268.30 L 817.00 268.00 Z" fill="#fafeff" fill-rule="nonzero" group-id="2" id="Shape" node-id="11" stroke="none" target-height="311" target-width="201" target-x="787" target-y="268"></path><path d="M 1047.00 268.00 L 1298.00 268.00 L 1302.10 268.30 L 1306.00 269.10 L 1309.70 270.40 L 1313.20 272.10 L 1316.30 274.20 L 1319.20 276.80 L 1321.80 279.70 L 1323.90 282.80 L 1325.60 286.30 L 1326.90 290.00 L 1327.70 293.90 L 1328.00 298.00 L 1328.00 549.00 L 1327.70 553.10 L 1326.90 557.00 L 1325.60 560.70 L 1323.90 564.20 L 1321.80 567.30 L 1319.20 570.20 L 1316.30 572.80 L 1313.20 574.90 L 1309.70 576.60 L 1306.00 577.90 L 1302.10 578.70 L 1298.00 579.00 L 1047.00 579.00 L 1042.90 578.70 L 1039.00 577.90 L 1035.30 576.60 L 1031.80 574.90 L 1028.70 572.80 L 1025.80 570.20 L 1023.20 567.30 L 1021.10 564.20 L 1019.40 560.70 L 1018.10 557.00 L 1017.30 553.10 L 1017.00 549.00 L 1017.00 298.00 L 1017.30 293.90 L 1018.10 290.00 L 1019.40 286.30 L 1021.10 282.80 L 1023.20 279.70 L 1025.80 276.80 L 1028.70 274.20 L 1031.80 272.10 L 1035.30 270.40 L 1039.00 269.10 L 1042.90 268.30 L 1047.00 268.00 Z" fill="#fafeff" fill-rule="nonzero" group-id="2" id="Shape" node-id="12" stroke="none" target-height="311" target-width="311" target-x="1017" target-y="268"></path><path d="M 799.00 180.00 L 1310.00 180.00 L 1315.20 180.30 L 1320.10 181.00 L 1324.90 182.20 L 1329.50 183.90 L 1333.90 186.10 L 1338.00 188.50 L 1341.80 191.40 L 1345.40 194.60 L 1348.60 198.20 L 1351.50 202.00 L 1353.90 206.10 L 1356.10 210.50 L 1357.80 215.10 L 1359.00 219.90 L 1359.70 224.80 L 1360.00 235.00 L 749.00 235.00 L 749.30 224.80 L 750.00 219.90 L 751.20 215.10 L 752.90 210.50 L 755.10 206.10 L 757.50 202.00 L 760.40 198.20 L 763.60 194.60 L 767.20 191.40 L 771.00 188.50 L 775.10 186.10 L 779.50 183.90 L 784.10 182.20 L 788.90 181.00 L 793.80 180.30 L 799.00 180.00 Z" fill="#cde2ff" fill-rule="nonzero" group-id="2" id="Shape" node-id="13" stroke="none" target-height="55" target-width="611" target-x="749" target-y="180"></path><path d="M 818.00 208.50 L 817.70 211.30 L 817.00 213.90 L 815.90 216.30 L 814.30 218.50 L 812.50 220.30 L 810.30 221.90 L 807.90 223.00 L 805.30 223.70 L 802.50 224.00 L 799.70 223.70 L 797.10 223.00 L 794.70 221.90 L 792.50 220.30 L 790.70 218.50 L 789.10 216.30 L 788.00 213.90 L 787.30 211.30 L 787.00 208.50 L 787.30 205.70 L 788.00 203.10 L 789.10 200.70 L 790.70 198.50 L 792.50 196.70 L 794.70 195.10 L 797.10 194.00 L 799.70 193.30 L 802.50 193.00 L 805.30 193.30 L 807.90 194.00 L 810.30 195.10 L 812.50 196.70 L 814.30 198.50 L 815.90 200.70 L 817.00 203.10 L 817.70 205.70 L 818.00 208.50 Z" fill="#fafeff" fill-rule="nonzero" group-id="2" id="Shape" node-id="14" stroke="none" target-height="31" target-width="31" target-x="787" target-y="193"></path><path d="M 874.00 208.50 L 873.70 211.30 L 873.00 213.90 L 871.90 216.30 L 870.30 218.50 L 868.50 220.30 L 866.30 221.90 L 863.90 223.00 L 861.30 223.70 L 858.50 224.00 L 855.70 223.70 L 853.10 223.00 L 850.70 221.90 L 848.50 220.30 L 846.70 218.50 L 845.10 216.30 L 844.00 213.90 L 843.30 211.30 L 843.00 208.50 L 843.30 205.70 L 844.00 203.10 L 845.10 200.70 L 846.70 198.50 L 848.50 196.70 L 850.70 195.10 L 853.10 194.00 L 855.70 193.30 L 858.50 193.00 L 861.30 193.30 L 863.90 194.00 L 866.30 195.10 L 868.50 196.70 L 870.30 198.50 L 871.90 200.70 L 873.00 203.10 L 873.70 205.70 L 874.00 208.50 Z" fill="#fafeff" fill-rule="nonzero" group-id="2" id="Shape" node-id="15" stroke="none" target-height="31" target-width="31" target-x="843" target-y="193"></path></g><g node-id="46"><path d="M 119.00 478.00 L 477.00 478.00 L 480.70 478.30 L 484.00 479.30 L 487.10 480.70 L 489.90 482.70 L 492.30 485.10 L 494.30 487.90 L 495.70 491.00 L 496.70 494.30 L 497.00 498.00 L 497.00 598.00 L 496.70 601.70 L 495.70 605.00 L 494.30 608.10 L 492.30 610.90 L 489.90 613.30 L 487.10 615.30 L 484.00 616.70 L 480.70 617.70 L 477.00 618.00 L 119.00 618.00 L 115.30 617.70 L 112.00 616.70 L 108.90 615.30 L 106.10 613.30 L 103.70 610.90 L 101.70 608.10 L 100.30 605.00 L 99.30 601.70 L 99.00 598.00 L 99.00 498.00 L 99.30 494.30 L 100.30 491.00 L 101.70 487.90 L 103.70 485.10 L 106.10 482.70 L 108.90 480.70 L 112.00 479.30 L 115.30 478.30 L 119.00 478.00 Z" fill="#e3eeff" fill-rule="nonzero" group-id="3" id="Shape" node-id="17" stroke="none" target-height="140" target-width="398" target-x="99" target-y="478"></path><path d="M 119.00 478.00 L 247.00 478.00 L 247.00 618.00 L 119.00 618.00 L 115.30 617.70 L 112.00 616.70 L 108.90 615.30 L 106.10 613.30 L 103.70 610.90 L 101.70 608.10 L 100.30 605.00 L 99.30 601.70 L 99.00 598.00 L 99.00 498.00 L 99.30 494.30 L 100.30 491.00 L 101.70 487.90 L 103.70 485.10 L 106.10 482.70 L 108.90 480.70 L 112.00 479.30 L 115.30 478.30 L 119.00 478.00 Z" fill="#cde2ff" fill-rule="nonzero" group-id="3" id="Shape" node-id="18" stroke="none" target-height="140" target-width="148" target-x="99" target-y="478"></path><path d="M 276.50 515.00 L 460.50 515.00 L 461.70 515.20 L 463.70 516.30 L 464.80 518.30 L 465.00 519.50 L 464.80 520.70 L 463.70 522.70 L 461.70 523.80 L 460.50 524.00 L 276.50 524.00 L 275.30 523.80 L 273.30 522.70 L 272.20 520.70 L 272.00 519.50 L 272.20 518.30 L 273.30 516.30 L 275.30 515.20 L 276.50 515.00 Z" fill="#ffffff" fill-rule="nonzero" group-id="3" id="Shape" node-id="19" stroke="none" target-height="9" target-width="193" target-x="272" target-y="515"></path><path d="M 276.50 544.00 L 460.50 544.00 L 461.70 544.20 L 463.70 545.30 L 464.80 547.30 L 465.00 548.50 L 464.80 549.70 L 463.70 551.70 L 461.70 552.80 L 460.50 553.00 L 276.50 553.00 L 275.30 552.80 L 273.30 551.70 L 272.20 549.70 L 272.00 548.50 L 272.20 547.30 L 273.30 545.30 L 275.30 544.20 L 276.50 544.00 Z" fill="#ffffff" fill-rule="nonzero" group-id="3" id="Shape" node-id="20" stroke="none" target-height="9" target-width="193" target-x="272" target-y="544"></path><path d="M 276.50 573.00 L 460.50 573.00 L 461.70 573.20 L 463.70 574.30 L 464.80 576.30 L 465.00 577.50 L 464.80 578.70 L 463.70 580.70 L 461.70 581.80 L 460.50 582.00 L 276.50 582.00 L 275.30 581.80 L 273.30 580.70 L 272.20 578.70 L 272.00 577.50 L 272.20 576.30 L 273.30 574.30 L 275.30 573.20 L 276.50 573.00 Z" fill="#ffffff" fill-rule="nonzero" group-id="3" id="Shape" node-id="21" stroke="none" target-height="9" target-width="193" target-x="272" target-y="573"></path></g><g node-id="47"><path d="M 274.00 184.00 L 632.00 184.00 L 635.70 184.30 L 639.00 185.30 L 642.10 186.70 L 644.90 188.70 L 647.30 191.10 L 649.30 193.90 L 650.70 197.00 L 651.70 200.30 L 652.00 204.00 L 652.00 404.00 L 651.70 407.70 L 650.70 411.00 L 649.30 414.10 L 647.30 416.90 L 644.90 419.30 L 642.10 421.30 L 639.00 422.70 L 635.70 423.70 L 632.00 424.00 L 274.00 424.00 L 270.30 423.70 L 267.00 422.70 L 263.90 421.30 L 261.10 419.30 L 258.70 416.90 L 256.70 414.10 L 255.30 411.00 L 254.30 407.70 L 254.00 404.00 L 254.00 204.00 L 254.30 200.30 L 255.30 197.00 L 256.70 193.90 L 258.70 191.10 L 261.10 188.70 L 263.90 186.70 L 267.00 185.30 L 270.30 184.30 L 274.00 184.00 Z" fill="#cde2ff" fill-opacity="0.8" fill-rule="nonzero" group-id="4" id="Shape" node-id="23" stroke="none" target-height="240" target-width="398" target-x="254" target-y="184"></path><path d="M 311.50 385.00 L 595.50 385.00 L 596.70 385.20 L 598.70 386.30 L 599.80 388.30 L 600.00 389.50 L 599.40 391.80 L 597.80 393.40 L 596.70 393.80 L 311.50 394.00 L 310.30 393.80 L 308.30 392.70 L 307.20 390.70 L 307.00 389.50 L 307.20 388.30 L 308.30 386.30 L 310.30 385.20 L 311.50 385.00 Z" fill="#ffffff" fill-opacity="0.8" fill-rule="nonzero" group-id="4" id="Shape" node-id="24" stroke="none" target-height="9" target-width="293" target-x="307" target-y="385"></path><path d="M 311.50 385.00 L 417.90 385.00 L 419.10 385.20 L 421.10 386.30 L 422.30 388.30 L 422.40 389.50 L 421.80 391.80 L 420.20 393.40 L 419.10 393.80 L 311.50 394.00 L 310.30 393.80 L 308.30 392.70 L 307.20 390.70 L 307.00 389.50 L 307.20 388.30 L 308.30 386.30 L 310.30 385.20 L 311.50 385.00 Z" fill="#e3eeff" fill-opacity="0.8" fill-rule="nonzero" group-id="4" id="Shape" node-id="25" stroke="none" target-height="9" target-width="115.399994" target-x="307" target-y="385"></path><path d="M 453.50 346.00 L 448.00 345.70 L 442.80 344.90 L 437.90 343.60 L 433.10 341.90 L 428.40 339.60 L 424.10 337.00 L 420.10 334.00 L 416.40 330.60 L 413.00 326.90 L 410.00 322.90 L 407.40 318.60 L 405.10 313.90 L 403.40 309.10 L 402.10 304.20 L 401.30 299.00 L 401.00 293.50 L 401.30 288.00 L 402.10 282.80 L 403.40 277.90 L 405.10 273.10 L 407.40 268.40 L 410.00 264.10 L 413.00 260.10 L 416.40 256.40 L 420.10 253.00 L 424.10 250.00 L 428.40 247.40 L 433.10 245.10 L 437.90 243.40 L 442.80 242.10 L 448.00 241.30 L 453.50 241.00 L 459.00 241.30 L 464.20 242.10 L 469.10 243.40 L 473.90 245.10 L 478.60 247.40 L 482.90 250.00 L 486.90 253.00 L 490.60 256.40 L 494.00 260.10 L 497.00 264.10 L 499.60 268.40 L 501.90 273.10 L 503.60 277.90 L 504.90 282.80 L 505.70 288.00 L 506.00 293.50 L 505.70 299.00 L 504.90 304.20 L 503.60 309.10 L 501.90 313.90 L 499.60 318.60 L 497.00 322.90 L 494.00 326.90 L 490.60 330.60 L 486.90 334.00 L 482.90 337.00 L 478.60 339.60 L 473.90 341.90 L 469.10 343.60 L 464.20 344.90 L 459.00 345.70 L 453.50 346.00 Z M 453.50 338.90 L 458.20 338.60 L 462.70 337.90 L 467.00 336.80 L 471.20 335.30 L 475.20 333.40 L 478.90 331.10 L 482.40 328.50 L 485.60 325.60 L 488.50 322.40 L 491.10 318.90 L 493.40 315.20 L 495.30 311.20 L 496.80 307.00 L 497.90 302.70 L 498.60 298.20 L 498.90 293.50 L 498.60 288.80 L 497.90 284.30 L 496.80 280.00 L 495.30 275.80 L 493.40 271.80 L 491.10 268.10 L 488.50 264.60 L 485.60 261.40 L 482.40 258.50 L 478.90 255.90 L 475.20 253.60 L 471.20 251.70 L 467.00 250.20 L 462.70 249.10 L 458.20 248.40 L 453.50 248.10 L 448.80 248.40 L 444.30 249.10 L 440.00 250.20 L 435.80 251.70 L 431.80 253.60 L 428.10 255.90 L 424.60 258.50 L 421.40 261.40 L 418.50 264.60 L 415.90 268.10 L 413.60 271.80 L 411.70 275.80 L 410.20 280.00 L 409.10 284.30 L 408.40 288.80 L 408.10 293.50 L 408.40 298.20 L 409.10 302.70 L 410.20 307.00 L 411.70 311.20 L 413.60 315.20 L 415.90 318.90 L 418.50 322.40 L 421.40 325.60 L 424.60 328.50 L 428.10 331.10 L 431.80 333.40 L 435.80 335.30 L 440.00 336.80 L 444.30 337.90 L 448.80 338.60 L 453.50 338.90 Z" fill="#ffffff" fill-opacity="0.8" fill-rule="nonzero" group-id="4" id="Shape" node-id="26" stroke="none" target-height="105" target-width="105" target-x="401" target-y="241"></path><path d="M 448.40 276.10 L 470.80 290.80 L 471.70 291.60 L 472.10 292.70 L 472.10 293.80 L 471.70 294.90 L 470.80 295.80 L 448.40 310.50 L 447.20 311.00 L 446.10 310.90 L 445.00 310.50 L 444.20 309.60 L 443.70 308.00 L 443.70 278.60 L 444.00 277.40 L 444.60 276.50 L 445.50 275.80 L 446.70 275.60 L 448.40 276.10 Z" fill="#ffffff" fill-opacity="0.8" fill-rule="nonzero" group-id="4" id="Shape" node-id="27" stroke="none" target-height="35.399994" target-width="28.399994" target-x="443.7" target-y="275.6"></path></g><g node-id="48"><path d="M 196.00 672.00 L 554.00 672.00 L 557.70 672.30 L 561.00 673.30 L 564.10 674.70 L 566.90 676.70 L 569.30 679.10 L 571.30 681.90 L 572.70 685.00 L 573.70 688.30 L 574.00 692.00 L 574.00 762.00 L 573.70 765.70 L 572.70 769.00 L 571.30 772.10 L 569.30 774.90 L 566.90 777.30 L 564.10 779.30 L 561.00 780.70 L 557.70 781.70 L 554.00 782.00 L 196.00 782.00 L 192.30 781.70 L 189.00 780.70 L 185.90 779.30 L 183.10 777.30 L 180.70 774.90 L 178.70 772.10 L 177.30 769.00 L 176.30 765.70 L 176.00 762.00 L 176.00 692.00 L 176.30 688.30 L 177.30 685.00 L 178.70 681.90 L 180.70 679.10 L 183.10 676.70 L 185.90 674.70 L 189.00 673.30 L 192.30 672.30 L 196.00 672.00 Z" fill="#e3eeff" fill-rule="nonzero" group-id="5" id="Shape" node-id="29" stroke="none" target-height="110" target-width="398" target-x="176" target-y="672"></path><path d="M 292.00 727.00 L 291.80 731.30 L 291.20 735.30 L 290.20 739.20 L 288.80 743.00 L 285.00 749.90 L 280.00 756.00 L 273.90 761.00 L 267.00 764.80 L 263.20 766.20 L 259.30 767.20 L 255.30 767.80 L 251.00 768.00 L 246.70 767.80 L 242.70 767.20 L 238.80 766.20 L 231.40 763.00 L 224.90 758.60 L 219.40 753.10 L 215.00 746.60 L 211.80 739.20 L 210.80 735.30 L 210.20 731.30 L 210.00 727.00 L 210.20 722.70 L 210.80 718.70 L 211.80 714.80 L 215.00 707.40 L 219.40 700.90 L 224.90 695.40 L 228.10 693.00 L 235.00 689.20 L 238.80 687.80 L 242.70 686.80 L 246.70 686.20 L 251.00 686.00 L 255.30 686.20 L 259.30 686.80 L 263.20 687.80 L 267.00 689.20 L 273.90 693.00 L 280.00 698.00 L 285.00 704.10 L 288.80 711.00 L 290.20 714.80 L 291.20 718.70 L 291.80 722.70 L 292.00 727.00 Z" fill="#cde2ff" fill-rule="nonzero" group-id="5" id="Shape" node-id="30" stroke="none" target-height="82" target-width="82" target-x="210" target-y="686"></path><path d="M 323.50 709.00 L 547.50 709.00 L 548.70 709.20 L 550.70 710.30 L 551.80 712.30 L 552.00 713.50 L 551.80 714.70 L 550.70 716.70 L 548.70 717.80 L 547.50 718.00 L 323.50 718.00 L 322.30 717.80 L 320.30 716.70 L 319.20 714.70 L 319.00 713.50 L 319.20 712.30 L 320.30 710.30 L 322.30 709.20 L 323.50 709.00 Z" fill="#ffffff" fill-rule="nonzero" group-id="5" id="Shape" node-id="31" stroke="none" target-height="9" target-width="233" target-x="319" target-y="709"></path><path d="M 323.50 738.00 L 547.50 738.00 L 548.70 738.20 L 550.70 739.30 L 551.80 741.30 L 552.00 742.50 L 551.80 743.70 L 550.70 745.70 L 548.70 746.80 L 547.50 747.00 L 323.50 747.00 L 322.30 746.80 L 320.30 745.70 L 319.20 743.70 L 319.00 742.50 L 319.20 741.30 L 320.30 739.30 L 322.30 738.20 L 323.50 738.00 Z" fill="#ffffff" fill-rule="nonzero" group-id="5" id="Shape" node-id="32" stroke="none" target-height="9" target-width="233" target-x="319" target-y="738"></path></g><g node-id="49"><path d="M 654.00 702.00 L 1012.00 702.00 L 1015.70 702.30 L 1019.00 703.30 L 1022.10 704.70 L 1024.90 706.70 L 1027.30 709.10 L 1029.30 711.90 L 1030.70 715.00 L 1031.70 718.30 L 1032.00 722.00 L 1032.00 832.00 L 1031.70 835.70 L 1030.70 839.00 L 1029.30 842.10 L 1027.30 844.90 L 1024.90 847.30 L 1022.10 849.30 L 1019.00 850.70 L 1015.70 851.70 L 1012.00 852.00 L 654.00 852.00 L 650.30 851.70 L 647.00 850.70 L 643.90 849.30 L 641.10 847.30 L 638.70 844.90 L 636.70 842.10 L 635.30 839.00 L 634.30 835.70 L 634.00 832.00 L 634.00 722.00 L 634.30 718.30 L 635.30 715.00 L 636.70 711.90 L 638.70 709.10 L 641.10 706.70 L 643.90 704.70 L 647.00 703.30 L 650.30 702.30 L 654.00 702.00 Z" fill="#e3eeff" fill-rule="nonzero" group-id="6" id="Shape" node-id="34" stroke="none" target-height="150" target-width="398" target-x="634" target-y="702"></path><path d="M 681.50 739.00 L 985.50 739.00 L 986.70 739.20 L 988.70 740.30 L 989.80 742.30 L 990.00 743.50 L 989.40 745.80 L 987.80 747.40 L 986.70 747.80 L 681.50 748.00 L 680.30 747.80 L 678.30 746.70 L 677.20 744.70 L 677.00 743.50 L 677.20 742.30 L 678.30 740.30 L 680.30 739.20 L 681.50 739.00 Z" fill="#ffffff" fill-rule="nonzero" group-id="6" id="Shape" node-id="35" stroke="none" target-height="9" target-width="313" target-x="677" target-y="739"></path><path d="M 681.50 773.00 L 985.50 773.00 L 986.70 773.20 L 988.70 774.30 L 989.80 776.30 L 990.00 777.50 L 989.40 779.80 L 987.80 781.40 L 986.70 781.80 L 681.50 782.00 L 680.30 781.80 L 678.30 780.70 L 677.20 778.70 L 677.00 777.50 L 677.20 776.30 L 678.30 774.30 L 680.30 773.20 L 681.50 773.00 Z" fill="#ffffff" fill-rule="nonzero" group-id="6" id="Shape" node-id="36" stroke="none" target-height="9" target-width="313" target-x="677" target-y="773"></path><path d="M 681.50 808.00 L 985.50 808.00 L 986.70 808.20 L 988.70 809.30 L 989.80 811.30 L 990.00 812.50 L 989.40 814.80 L 987.80 816.40 L 986.70 816.80 L 681.50 817.00 L 680.30 816.80 L 678.30 815.70 L 677.20 813.70 L 677.00 812.50 L 677.20 811.30 L 678.30 809.30 L 680.30 808.20 L 681.50 808.00 Z" fill="#ffffff" fill-rule="nonzero" group-id="6" id="Shape" node-id="37" stroke="none" target-height="9" target-width="313" target-x="677" target-y="808"></path></g></svg>